<svg width="48" height="48" viewBox="0 0 48 48" fill="none" xmlns="http://www.w3.org/2000/svg">
<circle cx="24" cy="24" r="24" transform="matrix(-1 0 0 1 48 0)" fill="black"/>
<path d="M20.3216 22.9458L25.9816 17.2958C26.0746 17.2021 26.1852 17.1277 26.307 17.0769C26.4289 17.0261 26.5596 17 26.6916 17C26.8236 17 26.9543 17.0261 27.0762 17.0769C27.198 17.1277 27.3086 17.2021 27.4016 17.2958C27.5878 17.4832 27.6924 17.7366 27.6924 18.0008C27.6924 18.265 27.5878 18.5184 27.4016 18.7058L22.4516 23.7058L27.4016 28.6558C27.5878 28.8432 27.6924 29.0966 27.6924 29.3608C27.6924 29.625 27.5878 29.8784 27.4016 30.0658C27.309 30.1603 27.1985 30.2355 27.0767 30.287C26.9548 30.3384 26.8239 30.3652 26.6916 30.3658C26.5593 30.3652 26.4284 30.3384 26.3065 30.287C26.1846 30.2355 26.0742 30.1603 25.9816 30.0658L20.3216 24.4158C20.2201 24.3222 20.1391 24.2085 20.0837 24.082C20.0283 23.9555 19.9997 23.8189 19.9997 23.6808C19.9997 23.5427 20.0283 23.4061 20.0837 23.2796C20.1391 23.1531 20.2201 23.0394 20.3216 22.9458Z" fill="white"/>
</svg>
