<svg width="48" height="48" viewBox="0 0 48 48" fill="none" xmlns="http://www.w3.org/2000/svg">
<circle cx="24" cy="24" r="24" fill="black"/>
<path d="M27.6784 22.9458L22.0184 17.2958C21.9254 17.2021 21.8148 17.1277 21.693 17.0769C21.5711 17.0261 21.4404 17 21.3084 17C21.1764 17 21.0457 17.0261 20.9238 17.0769C20.802 17.1277 20.6914 17.2021 20.5984 17.2958C20.4122 17.4832 20.3076 17.7366 20.3076 18.0008C20.3076 18.265 20.4122 18.5184 20.5984 18.7058L25.5484 23.7058L20.5984 28.6558C20.4122 28.8432 20.3076 29.0966 20.3076 29.3608C20.3076 29.625 20.4122 29.8784 20.5984 30.0658C20.691 30.1603 20.8015 30.2355 20.9233 30.287C21.0452 30.3384 21.1761 30.3652 21.3084 30.3658C21.4407 30.3652 21.5716 30.3384 21.6935 30.287C21.8154 30.2355 21.9258 30.1603 22.0184 30.0658L27.6784 24.4158C27.7799 24.3222 27.8609 24.2085 27.9163 24.082C27.9717 23.9555 28.0003 23.8189 28.0003 23.6808C28.0003 23.5427 27.9717 23.4061 27.9163 23.2796C27.8609 23.1531 27.7799 23.0394 27.6784 22.9458Z" fill="white"/>
</svg>
